<?xml version="1.0" encoding="UTF-8" standalone="no" ?>
<!DOCTYPE svg PUBLIC "-//W3C//DTD SVG 1.1//EN" "http://www.w3.org/Graphics/SVG/1.1/DTD/svg11.dtd">
<svg xmlns="http://www.w3.org/2000/svg" xmlns:xlink="http://www.w3.org/1999/xlink" version="1.1" width="1080" height="1080" viewBox="0 0 1080 1080" xml:space="preserve">
<desc>Created with Fabric.js 5.2.4</desc>
<defs>
</defs>
<g transform="matrix(1 0 0 1 540 540)" id="bbd9f4cf-8a2c-4810-bea2-6c87a8851a0c"  >
<rect style="stroke: none; stroke-width: 1; stroke-dasharray: none; stroke-linecap: butt; stroke-dashoffset: 0; stroke-linejoin: miter; stroke-miterlimit: 4; fill: rgb(255,255,255); fill-rule: nonzero; opacity: 1; visibility: hidden;" vector-effect="non-scaling-stroke"  x="-540" y="-540" rx="0" ry="0" width="1080" height="1080" />
</g>
<g transform="matrix(1 0 0 1 540 540)" id="833bf7e7-8603-44a5-b2d4-d1a53ffa4162"  >
</g>
<g transform="matrix(1.6 0 0 1.6 317.44 454.37)"  >
<path style="stroke: none; stroke-width: 1; stroke-dasharray: none; stroke-linecap: butt; stroke-dashoffset: 0; stroke-linejoin: miter; stroke-miterlimit: 4; fill: rgb(160,97,106); fill-rule: nonzero; opacity: 1;" vector-effect="non-scaling-stroke"  transform=" translate(-460.4, -395.99)" d="M 405.34786 314.03191 C 404.28857778440477 320.4636175699531 406.13254718939277 327.03418008880107 410.38359323466733 331.9755916885997 C 414.6346392799419 336.9170032883983 420.85608323614235 339.7216690582323 427.37386000000004 339.63491 L 481.32818000000003 496.62761 L 515.7550100000001 472.96761 L 449.29637 315.7305 C 448.40523999174803 304.5451629962627 439.28897996850463 295.79408397667356 428.076572533687 295.3607295092591 C 416.8641650988694 294.9273750418447 407.09965844985084 302.94872098375185 405.34786 314.03191 Z" stroke-linecap="round" />
</g>
<g transform="matrix(1.6 0 0 1.6 479.57 496.09)"  >
<path style="stroke: none; stroke-width: 1; stroke-dasharray: none; stroke-linecap: butt; stroke-dashoffset: 0; stroke-linejoin: miter; stroke-miterlimit: 4; fill: rgb(12,183,136); fill-rule: nonzero; opacity: 1;" vector-effect="non-scaling-stroke"  transform=" translate(-561.73, -422.06)" d="M 686.95533 367.15 C 662.99533 394.40999999999997 603.91533 442.45 555.24533 475.53 C 544.72533 482.67999999999995 534.68533 489.11999999999995 525.59533 494.51 C 519.45533 498.15 513.74533 501.3 508.60533 503.87 C 501.6313415939582 507.3440802882585 493.52503344291887 507.7546072936686 486.2357510580343 505.00286049385534 C 478.9464686731497 502.25111369404215 473.1337264527358 496.5860636377059 470.19533 489.37 L 436.49533 407.84000000000003 L 448.15533000000005 400.10995 L 476.90533000000005 381.03995000000003 L 483.43533 376.71995000000004 L 510.39533 440.92995 L 538.82533 418.10995 L 556.47533 403.93995 L 636.93533 339.36995 L 643.8753300000001 337.30995 L 660.0653300000001 353.10995 L 671.5152800000001 364.28995000000003 L 682.2852800000001 366.15995000000004 C 683.89533 366.43994 685.45533 366.77 686.95533 367.15 Z" stroke-linecap="round" />
</g>
<g transform="matrix(1.6 0 0 1.6 546.76 620.22)"  >
<path style="stroke: none; stroke-width: 1; stroke-dasharray: none; stroke-linecap: butt; stroke-dashoffset: 0; stroke-linejoin: miter; stroke-miterlimit: 4; fill: rgb(12,183,136); fill-rule: nonzero; opacity: 1;" vector-effect="non-scaling-stroke"  transform=" translate(-603.72, -499.63)" d="M 727.18537 454.54993 L 724.16537 661.95993 L 480.20537 654.95993 L 519.16537 568.95993 C 518.8853700000001 566.19993 536.2653700000001 546.82993 536.16537 543.95993 C 535.8653700000001 535.54993 542.1453700000001 527.7599299999999 543.16537 518.95993 C 545.2453700000001 500.80993 533.33537 432.26993 538.82537 418.10992999999996 C 541.16407033216 411.78686698052496 544.1605121492596 405.72696561239644 547.7653700000001 400.02998 C 550.8853700000001 395.30997999999994 554.0853700000001 392.12998 557.1453700000001 390.97997999999995 L 566.16537 369.95998 L 574.16537 357.95998 L 636.93537 339.36998 L 643.8753700000001 337.30998 L 660.0653700000001 353.10998 L 671.5153200000001 364.28998 L 682.2853200000001 366.15998 C 683.8953200000001 366.43998 685.45532 366.76998000000003 686.95532 367.14998 C 694.1796823813062 368.8158771301397 700.9130628547293 372.1517431429139 706.61532 376.88998000000004 C 725.41535 392.85992 727.60536 422.9 727.18537 454.54993 Z" stroke-linecap="round" />
</g>
<g transform="matrix(1.6 0 0 1.6 545.95 897.71)"  >
<path style="stroke: none; stroke-width: 1; stroke-dasharray: none; stroke-linecap: butt; stroke-dashoffset: 0; stroke-linejoin: miter; stroke-miterlimit: 4; fill: rgb(204,204,204); fill-rule: nonzero; opacity: 1;" vector-effect="non-scaling-stroke"  transform=" translate(-603.22, -673.07)" d="M 867.29 660.40221 Q 856.9699999999999 673.34721 845.42 685.22221 L 819.04 685.24221 L 677.17 685.40221 L 651.63 685.4322099999999 L 634.65 685.4522099999999 L 609.39 685.4722099999999 L 589.96 685.4922099999999 L 554.07 685.5322099999998 L 532.9000000000001 685.5622099999998 L 488.3200000000001 685.6022099999998 L 467.0400000000001 685.6322099999998 L 408.07000000000005 685.6922099999997 L 371.03000000000003 685.7322099999997 L 361.09000000000003 685.7422099999997 Q 357.77500000000003 682.3522099999997 354.56000000000006 678.8622099999997 Q 346.55000000000007 670.1772099999997 339.15000000000003 660.9522099999997 L 359.73 660.9322099999997 L 373.75 660.9222099999997 L 406.21 660.8822099999998 L 468.84999999999997 660.8222099999998 L 490.02 660.8022099999998 L 498.58 660.7922099999998 L 498.60999999999996 660.7922099999998 L 505.33 660.7822099999998 L 508.34 660.7722099999999 L 516.05 660.7622099999999 L 519.31 660.7622099999999 L 542.17 660.7422099999999 L 591.48 660.6822099999999 L 613.1800000000001 660.66221 L 633.96 660.64221 L 653.44 660.62221 L 681.3900000000001 660.59221 L 830.6700000000001 660.44221 Z" stroke-linecap="round" />
</g>
<g transform="matrix(1.6 0 0 1.6 541.34 255.05)"  >
<path style="stroke: none; stroke-width: 1; stroke-dasharray: none; stroke-linecap: butt; stroke-dashoffset: 0; stroke-linejoin: miter; stroke-miterlimit: 4; fill: rgb(47,46,65); fill-rule: nonzero; opacity: 1;" vector-effect="non-scaling-stroke"  transform=" translate(-600.34, -271.41)" d="M 529.76568 348.972 L 529.71145 348.97719 C 523.7040406446143 349.5361849163192 518.3809157316011 345.11937834900397 517.82191 339.11197 L 512.13506 278.41247999999996 C 511.1056282184061 267.53853126757684 512.2731915001917 256.5686014512895 515.56833 246.15492999999992 C 522.0269890262631 225.83040548237622 536.0798048851954 208.78227916130456 554.7981299999999 198.56342999999995 C 564.4632833209864 193.30089192010033 575.0939013103116 190.04977973459296 586.0492699999999 189.00603999999996 C 630.8688099999998 184.73603999999995 647.2477799999999 194.07062999999997 674.9337999999999 262.4274 C 702.6198199999999 330.78417 680.6293199999999 323.21939999999995 680.6293199999999 323.21939999999995 C 680.7680205017522 324.68225960832194 680.6106684853129 326.1580703160328 680.1666499999999 327.55879999999996 C 679.2952579598916 330.29169986524596 677.4016277921528 332.5822251480044 674.8813099999999 333.95192 C 673.5880127666672 334.6531567396553 672.1669657938144 335.0873005462331 670.7025899999999 335.22855999999996 C 617.71622 348.697 564.251 362.87424 529.75665 348.9728 Z" stroke-linecap="round" />
</g>
<g transform="matrix(1.6 0 0 1.6 506.77 269.27)"  >
<path style="stroke: none; stroke-width: 1; stroke-dasharray: none; stroke-linecap: butt; stroke-dashoffset: 0; stroke-linejoin: miter; stroke-miterlimit: 4; fill: rgb(158,97,106); fill-rule: nonzero; opacity: 1;" vector-effect="non-scaling-stroke"  transform=" translate(-578.72, -280.29)" d="M 628.38742 246.52082 C 641.9888914923813 266.6452964875427 642.1382937631388 292.9789194872656 628.7660405813134 313.2564298249989 C 615.3937873994881 333.53394016273216 591.1295729643487 343.7677038484744 567.2748 339.1912 C 551.6771739468309 336.2495342912794 537.9058740008999 327.1871908156632 529.03331 314.02599999999995 C 515.4609609114402 293.90899806081626 515.3198082044762 267.60317805343004 528.675492923302 247.3416847102884 C 542.031177642128 227.0801913671468 566.262357719203 216.8397811009489 590.10067 221.38260999999994 C 605.7109019859874 224.30692756660426 619.4997783483562 233.36114165057734 628.3876700000001 246.52306999999993 Z" stroke-linecap="round" />
</g>
<g transform="matrix(1.6 0 0 1.6 482.71 225.27)"  >
<path style="stroke: none; stroke-width: 1; stroke-dasharray: none; stroke-linecap: butt; stroke-dashoffset: 0; stroke-linejoin: miter; stroke-miterlimit: 4; fill: rgb(47,46,65); fill-rule: nonzero; opacity: 1;" vector-effect="non-scaling-stroke"  transform=" translate(-563.69, -252.8)" d="M 493.34592 285.156 C 492.5323581128334 276.55594908771235 493.45596491939216 267.8801058368254 496.06185 259.64408000000003 C 496.66606 239.49689000000004 502.51147 221.24836000000005 527.08446 222.01431000000002 C 534.6803856669165 217.88218587853987 543.0298526605357 215.3201260184825 551.63611 214.48056000000005 L 563.77932 213.28144000000003 Q 563.98389 213.26108000000002 564.18857 213.24204000000003 C 581.1794265944212 211.6607198713239 598.102558273997 216.89376340871598 611.2350637866086 227.78995908072778 C 624.3675692992202 238.68615475273955 632.6337004224321 254.35294149292258 634.215 271.34380000000004 L 634.3289100000001 272.55959 L 608.63778 275.07123 L 597.58078 251.40944000000002 L 598.12634 276.10381 L 584.85734 277.40612 L 579.28129 265.46819 L 579.55352 277.91897 C 559.85212 295.27047 529.9772 296.17997 493.4713300000001 286.37297 Z" stroke-linecap="round" />
</g>
<g transform="matrix(1.6 0 0 1.6 559.75 290.93)"  >
<path style="stroke: none; stroke-width: 1; stroke-dasharray: none; stroke-linecap: butt; stroke-dashoffset: 0; stroke-linejoin: miter; stroke-miterlimit: 4; fill: rgb(47,46,65); fill-rule: nonzero; opacity: 1;" vector-effect="non-scaling-stroke"  transform=" translate(-611.84, -293.83)" d="M 575.525 342.75525 C 575.3064064452518 344.75523097206855 575.6534427846905 346.77641864730106 576.5266399999999 348.58894 C 576.9666024846996 349.5172656358304 577.5345028802682 350.37934741025606 578.21377 351.15002999999996 C 578.7948968909005 351.80644483779923 579.4516027326001 352.3918422882317 580.17021 352.89403 C 582.2985086301769 354.37584481089976 584.8851961973553 355.0507529521984 587.46616 354.79766 Q 587.70732 354.77279 587.9476 354.7389 Q 588.18788 354.70501 588.42714 354.6599 Q 588.66885 354.61677 588.90704 354.56032999999996 Q 589.1452300000001 354.50388999999996 589.3848200000001 354.43819999999994 L 598.3513300000001 351.9256899999999 L 608.4004800000001 323.9063799999999 L 610.7039600000002 348.4929499999999 L 651.4768000000001 337.1412599999999 L 641.7018000000002 232.8062599999999 L 572.2072500000002 239.6538799999999 L 574.1130800000002 241.4890999999999 C 580.4457094763734 247.65281247970069 584.9550454205602 255.44417669729012 587.1447700000002 264.0056399999999 C 589.3182376514801 272.6813728322326 589.9890806958142 281.665378401305 589.1281800000003 290.56768999999986 C 588.3239932563457 299.5693630351433 586.6573457081278 308.47302488042965 584.1511800000003 317.1561099999999 C 581.9696272765817 324.84489267324807 579.3469015141671 332.4016005335016 576.2960400000003 339.7886699999999 C 575.901578488736 340.73661293292054 575.6420365140949 341.7352018921583 575.525 342.75525 Z" stroke-linecap="round" />
</g>
<g transform="matrix(1.6 0 0 1.6 465.07 859.79)"  >
<path style="stroke: none; stroke-width: 1; stroke-dasharray: none; stroke-linecap: butt; stroke-dashoffset: 0; stroke-linejoin: miter; stroke-miterlimit: 4; fill: rgb(63,61,86); fill-rule: nonzero; opacity: 1;" vector-effect="non-scaling-stroke"  transform=" translate(-552.67, -649.37)" d="M 584.79172 671.70909 C 583.5968955909951 671.7080092123554 582.4172552571272 671.4413122262741 581.3381700000001 670.9282999999999 L 388.8183600000001 675.8399099999999 C 385.7941081839925 674.4073763064027 383.96591105638544 671.2587975454214 384.22097795032806 667.9221536163317 C 384.4760448442707 664.585509687242 386.76158333045987 661.7514019300031 389.9684400000001 660.7951999999999 L 515.92028 623.2401299999999 C 517.2246333639673 622.8514520529562 518.6060404653473 622.7985967204867 519.93628 623.08647 L 714.7624 646.8327 C 718.305469176334 647.5985618398142 720.9047806179323 650.6304485113222 721.120509866619 654.2489211776875 C 721.336239115306 657.8673938440528 719.1155751503497 661.1866419989874 715.6886 662.36805 L 587.42985 671.26462 C 586.5812301448512 671.5581431648367 585.6896681963797 671.7083527978863 584.79172 671.70909 Z" stroke-linecap="round" />
</g>
<g transform="matrix(1.6 0 0 1.6 439.19 866.17)"  >
<path style="stroke: none; stroke-width: 1; stroke-dasharray: none; stroke-linecap: butt; stroke-dashoffset: 0; stroke-linejoin: miter; stroke-miterlimit: 4; fill: rgb(47,46,65); fill-rule: nonzero; opacity: 1;" vector-effect="non-scaling-stroke"  transform=" translate(-536.49, -653.35)" d="M 591.8725 658.30727 C 591.0031425660659 658.3076767621731 590.1482004023695 658.0851720010178 589.38934 657.66101 L 433.0352 664.96557 C 431.2182111079934 663.9465168000639 430.2098459664814 661.9194273633826 430.493245447802 659.8555468455322 C 430.7766449291226 657.7916663276818 432.29408092911376 656.1114044942605 434.3185 655.61983 L 490.92213999999996 641.88149 C 491.80556434052045 641.6678322038374 492.7301153489607 641.6949295111324 493.59950999999995 641.95996 L 638.9530299999999 641.7853200000001 C 641.0770919384161 642.4354307771686 642.5303531851378 644.3928399145576 642.538153118631 646.6141508567393 C 642.5459530521243 648.8354617989211 641.1064740049962 650.8030285335545 638.9870299999999 651.4680400000001 L 593.3846599999999 658.0764600000001 C 592.8952219283566 658.2296093496584 592.3853394698162 658.3074357504729 591.8725 658.30727 Z" stroke-linecap="round" />
</g>
<g transform="matrix(1.6 0 0 1.6 651.46 830.91)"  >
<path style="stroke: none; stroke-width: 1; stroke-dasharray: none; stroke-linecap: butt; stroke-dashoffset: 0; stroke-linejoin: miter; stroke-miterlimit: 4; fill: rgb(160,97,106); fill-rule: nonzero; opacity: 1;" vector-effect="non-scaling-stroke"  transform=" translate(-669.16, -631.31)" d="M 575.4148 649.97366 C 580.8932708334797 653.5057102421678 587.6548399927121 654.429723502614 593.8800994287524 652.497065607259 C 600.1053588647927 650.564407711904 605.1548309547179 645.9736071702087 607.6698 639.95996 L 773.16534 652.95996 L 765.16534 611.95996 L 594.46786 610.33357 C 583.8522331706507 606.6984460996268 572.1954575768083 611.5776707511017 567.3345276372681 621.6908808682675 C 562.4735976977279 631.8040909854334 565.9449665602973 643.9546814511162 575.4147899999999 649.97366 Z" stroke-linecap="round" />
</g>
<g transform="matrix(1.6 0 0 1.6 744.56 650.97)"  >
<path style="stroke: none; stroke-width: 1; stroke-dasharray: none; stroke-linecap: butt; stroke-dashoffset: 0; stroke-linejoin: miter; stroke-miterlimit: 4; fill: rgb(12,183,136); fill-rule: nonzero; opacity: 1;" vector-effect="non-scaling-stroke"  transform=" translate(-727.35, -518.86)" d="M 673.16535 382.96 C 673.16535 382.96 698.16535 362.96 728.16535 398.96 C 748.39698 423.23794999999996 787.42472 570.00436 790.6605 630.82245 C 791.0741131224171 638.6022110488575 788.2256401893742 646.2021972571964 782.8005176087062 651.7936016225668 C 777.3753950280383 657.3850059879371 769.8648402031383 660.4615551325785 762.07614 660.28293 L 673.8652500000001 658.74772 L 664.0013700000001 603.2977199999999 L 733.6448300000001 604.1223899999999 Z" stroke-linecap="round" />
</g>
<g transform="matrix(1.6 0 0 1.6 351.22 738.9)"  >
<path style="stroke: none; stroke-width: 1; stroke-dasharray: none; stroke-linecap: butt; stroke-dashoffset: 0; stroke-linejoin: miter; stroke-miterlimit: 4; fill: rgb(63,61,86); fill-rule: nonzero; opacity: 1;" vector-effect="non-scaling-stroke"  transform=" translate(-481.52, -573.81)" d="M 574.084 671.73152 C 571.0578072824385 671.7290818783459 568.0625404839304 671.1226313459159 565.27374 669.94771 L 386.83173999999997 674.01917 C 377.13688557642377 669.9760091898225 371.48802442861427 659.8036934739881 373.18073999999996 649.43682 L 366.55020999999994 492.72547 C 368.3730862829005 481.12147575630524 378.7672017241576 472.8385142435552 390.4853099999999 473.65184 L 556.14843 480.52284 C 562.5794188273619 480.9444355603113 568.5294364059263 484.07519471729324 572.5190321783259 489.1366654212467 C 576.5086279507257 494.1981361252001 578.1630128510495 500.7148356491794 577.07083 507.06640999999996 L 596.48026 652.835 C 594.5961358406292 663.7378808364703 585.1484582867218 671.7092219376613 574.084 671.73152 Z" stroke-linecap="round" />
</g>
<g transform="matrix(1.6 0 0 1.6 222.72 239.83)"  >
<path style="stroke: none; stroke-width: 1; stroke-dasharray: none; stroke-linecap: butt; stroke-dashoffset: 0; stroke-linejoin: miter; stroke-miterlimit: 4; fill: rgb(230,230,230); fill-rule: nonzero; opacity: 1;" vector-effect="non-scaling-stroke"  transform=" translate(-401.2, -261.89)" d="M 438.58534 205.16992 L 364.11533999999995 204.95991999999998 C 359.9591551368137 204.95499602408287 356.58249394504713 208.31376762013147 356.56533999999994 212.46991999999997 L 356.29533999999995 311.07991999999996 C 356.2865386054058 315.23217833022596 359.6430935944005 318.60663494582866 363.79533999999995 318.61992 L 405.10533999999996 318.73992 L 438.27533999999997 318.82991999999996 C 442.4310016234983 318.8375218245467 445.8063744082108 315.4755789050254 445.81534 311.31991999999997 L 445.83534 305.48992 L 446.09533999999996 212.71992 C 446.10374418740827 208.56230226130705 442.74294372220754 205.18360139416117 438.58534 205.16992 Z" stroke-linecap="round" />
</g>
<g transform="matrix(1.6 0 0 1.6 222.77 239.83)"  >
<path style="stroke: none; stroke-width: 1; stroke-dasharray: none; stroke-linecap: butt; stroke-dashoffset: 0; stroke-linejoin: miter; stroke-miterlimit: 4; fill: rgb(255,255,255); fill-rule: nonzero; opacity: 1;" vector-effect="non-scaling-stroke"  transform=" translate(-401.23, -261.89)" d="M 433.33534 211.05994 L 369.33534 210.87994 C 365.44425678731625 210.87503080237258 362.28250777159036 214.0188915634126 362.26534 217.90994 L 362.08534 281.30994 C 362.05925571858177 298.64586085031596 376.06953194103073 312.7321826333593 393.40533999999997 312.79994 L 405.56534 312.82993999999997 L 433.05534 312.90993999999995 C 436.94788468606214 312.91840035800357 440.1117150396468 309.7724700347079 440.12534 305.87994 L 440.14529 299.49994 L 440.36529 218.12993999999998 C 440.373772473537 214.23740569325173 437.22785968419294 211.0735704710009 433.33534 211.05994 Z" stroke-linecap="round" />
</g>
<g transform="matrix(1.6 0 0 1.6 222.71 232.6)"  >
<path style="stroke: none; stroke-width: 1; stroke-dasharray: none; stroke-linecap: butt; stroke-dashoffset: 0; stroke-linejoin: miter; stroke-miterlimit: 4; fill: rgb(12,183,136); fill-rule: nonzero; opacity: 1;" vector-effect="non-scaling-stroke"  transform=" translate(-401.2, -257.37)" d="M 426.14533 254.37994 L 376.24533 254.37994 C 375.17531950055985 254.37993991350214 374.1865889885965 254.95078366969366 373.65158371390663 255.87743993010864 C 373.11657843921677 256.8040961905236 373.11657843921677 257.9457838094764 373.65158371390663 258.87244006989135 C 374.1865889885965 259.7990963303063 375.17531950055985 260.3699400864978 376.24533 260.36994 L 426.14533 260.36994 C 427.79942282574325 260.36994 429.14033 259.02903282574323 429.14033 257.37494 C 429.14033 255.72084717425676 427.79942282574325 254.37993999999998 426.14533 254.37993999999998 Z" stroke-linecap="round" />
</g>
<g transform="matrix(1.6 0 0 1.6 191.57 206.33)"  >
<path style="stroke: none; stroke-width: 1; stroke-dasharray: none; stroke-linecap: butt; stroke-dashoffset: 0; stroke-linejoin: miter; stroke-miterlimit: 4; fill: rgb(12,183,136); fill-rule: nonzero; opacity: 1;" vector-effect="non-scaling-stroke"  transform=" translate(-381.73, -240.96)" d="M 387.21534 237.96 L 376.24534 237.96 C 374.59124717425675 237.96 373.25034 239.3009071742568 373.25034 240.955 C 373.25034 242.60909282574323 374.59124717425675 243.95000000000002 376.24534 243.95000000000002 L 387.21534 243.95000000000002 C 388.8694328257433 243.95000000000002 390.21034000000003 242.60909282574323 390.21034000000003 240.955 C 390.21034000000003 239.3009071742568 388.8694328257433 237.96 387.21534 237.96 Z" stroke-linecap="round" />
</g>
<g transform="matrix(1.6 0 0 1.6 222.71 274.73)"  >
<path style="stroke: none; stroke-width: 1; stroke-dasharray: none; stroke-linecap: butt; stroke-dashoffset: 0; stroke-linejoin: miter; stroke-miterlimit: 4; fill: rgb(12,183,136); fill-rule: nonzero; opacity: 1;" vector-effect="non-scaling-stroke"  transform=" translate(-401.2, -283.7)" d="M 426.14533 280.71 L 376.24533 280.71 C 374.5912371742568 280.71 373.25033 282.05090717425674 373.25033 283.705 C 373.25033 285.35909282574323 374.5912371742568 286.7 376.24533 286.7 L 426.14533 286.7 C 427.79942282574325 286.7 429.14033 285.35909282574323 429.14033 283.705 C 429.14033 282.05090717425674 427.79942282574325 280.71 426.14533 280.71 Z" stroke-linecap="round" />
</g>
<g transform="matrix(1.6 0 0 1.6 222.72 253.66)"  >
<path style="stroke: none; stroke-width: 1; stroke-dasharray: none; stroke-linecap: butt; stroke-dashoffset: 0; stroke-linejoin: miter; stroke-miterlimit: 4; fill: rgb(12,183,136); fill-rule: nonzero; opacity: 1;" vector-effect="non-scaling-stroke"  transform=" translate(-401.2, -270.54)" d="M 426.14533 267.54993 L 376.24533 267.54993 C 374.59399859800595 267.54993 373.25533 268.88859859800596 373.25533 270.53993 C 373.25533 272.1912614019941 374.59399859800595 273.52993000000004 376.24533 273.52993000000004 L 426.14533 273.52993000000004 C 427.7966614019941 273.52993000000004 429.13533 272.1912614019941 429.13533 270.53993 C 429.13533 268.88859859800596 427.7966614019941 267.54993 426.14533 267.54993 Z" stroke-linecap="round" />
</g>
<g transform="matrix(1.6 0 0 1.6 247.11 190.14)"  >
<path style="stroke: none; stroke-width: 1; stroke-dasharray: none; stroke-linecap: butt; stroke-dashoffset: 0; stroke-linejoin: miter; stroke-miterlimit: 4; fill: rgb(12,183,136); fill-rule: nonzero; opacity: 1;" vector-effect="non-scaling-stroke"  transform=" translate(-416.45, -230.83)" d="M 416.449 248.55039 C 409.2833801314148 248.55039404462295 402.8233310904416 244.23393189057134 400.0811642815492 237.61376351708654 C 397.33899747265684 230.99359514360174 398.85473584469275 223.3734497167299 403.92159281518445 218.30658988625706 C 408.9884497856762 213.2397300557842 416.6085943569904 211.7239873825681 423.2287642782864 214.46615045471532 C 429.84893419958235 217.20831352686253 434.1653999999989 223.66836013141364 434.16540000000003 230.83398 C 434.1542736469475 240.61386676751448 426.2288867612327 248.53925812670408 416.449 248.55039 Z M 416.449 214.34875 C 409.78133827334597 214.34872573225 403.77020377796913 218.36520904218042 401.21858235300255 224.5253178890538 C 398.6669609280359 230.6854267359272 400.0773514461229 237.7760314130298 404.79209025776674 242.49079024457737 C 409.50682906941057 247.20554907612495 416.59742775760793 248.6159697025313 422.75754743919504 246.06437443482127 C 428.9176671207821 243.51277916711123 432.93417595533066 237.50166172669702 432.93418 230.834 C 432.9238472263056 221.73375856295593 425.54924139308673 214.3591214154045 416.449 214.34875 Z" stroke-linecap="round" />
</g>
<g transform="matrix(1.6 0 0 1.6 246.92 188.02)"  >
<path style="stroke: none; stroke-width: 1; stroke-dasharray: none; stroke-linecap: butt; stroke-dashoffset: 0; stroke-linejoin: miter; stroke-miterlimit: 4; fill: rgb(12,183,136); fill-rule: nonzero; opacity: 1;" vector-effect="non-scaling-stroke"  transform=" translate(-416.33, -229.51)" d="M 423.8894 237.69619 C 422.66567534695315 231.3782600528412 420.1169655824439 225.39137875949746 416.41123000000005 220.13007999999994 C 416.24121099359803 219.8527087391687 415.9392575665732 219.68363043734124 415.61392500000005 219.68363043734124 C 415.2885924334269 219.68363043734124 414.9866390064021 219.8527087391687 414.81662000000006 220.13008 C 411.5892096067179 225.775086451138 409.52626760786023 232.00984076272388 408.74974000000003 238.46579000000003 C 408.60622 239.64279 410.45425000000006 239.63245 410.59650000000005 238.46579 C 410.855976891843 236.37358210408132 411.26049071614847 234.30192814933588 411.80712000000005 232.26579 C 411.87786839852225 232.2518451159431 411.9470000825646 232.2306810562072 412.01343 232.20263 C 414.4690922217134 230.96972257671771 417.2432815133203 230.5179586081422 419.96324000000004 230.90804 C 419.98691 230.91157 420.00976 230.90642 420.03343000000007 230.90872 C 420.9315916526073 233.27119999350023 421.62585644692655 235.7062337527786 422.1086200000001 238.18714999999995 C 422.33387 239.35283 424.11416 238.85928 423.8894 237.69619 Z M 412.47185 230.001 C 413.31950381226375 227.3713112144913 414.39864557679505 224.8219565484827 415.6966 222.38288 C 417.0704026092456 224.48180112690966 418.26330030185744 226.69370384241182 419.26241 228.99469999999997 C 416.95222094053486 228.82097438064176 414.6323705404341 229.16475537331706 412.47185 230.001 Z" stroke-linecap="round" />
</g>
</svg>